<mxfile host="Electron" agent="Mozilla/5.0 (Windows NT 10.0; Win64; x64) AppleWebKit/537.36 (KHTML, like Gecko) draw.io/26.2.2 Chrome/134.0.6998.178 Electron/35.1.2 Safari/537.36" version="26.2.2">
  <diagram name="第 1 页" id="uqDk3Ymovm2YjlfpJUk8">
    <mxGraphModel dx="1228" dy="736" grid="0" gridSize="10" guides="1" tooltips="1" connect="1" arrows="1" fold="1" page="0" pageScale="1" pageWidth="827" pageHeight="1169" math="0" shadow="0">
      <root>
        <mxCell id="0" />
        <mxCell id="1" parent="0" />
        <mxCell id="35Ib3SzO13fKSSsHiSuY-1" value="使用者" style="swimlane;whiteSpace=wrap;fillColor=#f5f5f5;fontColor=#333333;strokeColor=#666666;fontSize=15;" vertex="1" parent="1">
          <mxGeometry x="310" y="70" width="450" height="600" as="geometry" />
        </mxCell>
        <mxCell id="35Ib3SzO13fKSSsHiSuY-2" value="" style="ellipse;shape=startState;fillColor=#000000;strokeColor=none;fontSize=15;" vertex="1" parent="35Ib3SzO13fKSSsHiSuY-1">
          <mxGeometry x="29" y="82" width="30" height="30" as="geometry" />
        </mxCell>
        <mxCell id="35Ib3SzO13fKSSsHiSuY-3" value="" style="edgeStyle=elbowEdgeStyle;elbow=horizontal;verticalAlign=bottom;endArrow=classic;endSize=8;strokeColor=#000000;endFill=1;rounded=0;entryX=0;entryY=0.5;entryDx=0;entryDy=0;fontSize=15;" edge="1" parent="35Ib3SzO13fKSSsHiSuY-1" source="35Ib3SzO13fKSSsHiSuY-2" target="35Ib3SzO13fKSSsHiSuY-4">
          <mxGeometry x="100" y="40" as="geometry">
            <mxPoint x="4.5" y="99" as="targetPoint" />
          </mxGeometry>
        </mxCell>
        <mxCell id="35Ib3SzO13fKSSsHiSuY-4" value="&lt;span style=&quot;text-wrap-mode: nowrap;&quot;&gt;點選會員專區&lt;/span&gt;" style="rounded=1;whiteSpace=wrap;html=1;fillColor=#e1d5e7;strokeColor=#9673a6;fontSize=15;" vertex="1" parent="35Ib3SzO13fKSSsHiSuY-1">
          <mxGeometry x="114" y="67" width="120" height="60" as="geometry" />
        </mxCell>
        <mxCell id="35Ib3SzO13fKSSsHiSuY-31" style="edgeStyle=orthogonalEdgeStyle;rounded=0;orthogonalLoop=1;jettySize=auto;html=1;entryX=0.5;entryY=0;entryDx=0;entryDy=0;" edge="1" parent="35Ib3SzO13fKSSsHiSuY-1" source="35Ib3SzO13fKSSsHiSuY-5" target="35Ib3SzO13fKSSsHiSuY-27">
          <mxGeometry relative="1" as="geometry" />
        </mxCell>
        <mxCell id="35Ib3SzO13fKSSsHiSuY-5" value="點選購買點數" style="rounded=1;whiteSpace=wrap;html=1;fillColor=#e1d5e7;strokeColor=#9673a6;fontSize=15;" vertex="1" parent="35Ib3SzO13fKSSsHiSuY-1">
          <mxGeometry x="289" y="67" width="120" height="60" as="geometry" />
        </mxCell>
        <mxCell id="35Ib3SzO13fKSSsHiSuY-6" value="" style="endArrow=classic;strokeColor=#000000;endFill=1;rounded=0;exitX=1;exitY=0.5;exitDx=0;exitDy=0;entryX=0;entryY=0.5;entryDx=0;entryDy=0;fontSize=15;" edge="1" parent="35Ib3SzO13fKSSsHiSuY-1" source="35Ib3SzO13fKSSsHiSuY-4" target="35Ib3SzO13fKSSsHiSuY-5">
          <mxGeometry relative="1" as="geometry">
            <mxPoint x="114.5" y="99" as="sourcePoint" />
            <mxPoint x="168.66666666666674" y="164" as="targetPoint" />
          </mxGeometry>
        </mxCell>
        <mxCell id="35Ib3SzO13fKSSsHiSuY-7" value="" style="ellipse;shape=endState;fillColor=#000000;strokeColor=#000000;fontSize=15;" vertex="1" parent="35Ib3SzO13fKSSsHiSuY-1">
          <mxGeometry x="122" y="497" width="30" height="30" as="geometry" />
        </mxCell>
        <mxCell id="35Ib3SzO13fKSSsHiSuY-12" style="edgeStyle=orthogonalEdgeStyle;rounded=0;orthogonalLoop=1;jettySize=auto;html=1;" edge="1" parent="35Ib3SzO13fKSSsHiSuY-1" source="35Ib3SzO13fKSSsHiSuY-13" target="35Ib3SzO13fKSSsHiSuY-7">
          <mxGeometry relative="1" as="geometry" />
        </mxCell>
        <mxCell id="35Ib3SzO13fKSSsHiSuY-13" value="顯示購買成功訊息" style="rounded=1;whiteSpace=wrap;html=1;fillColor=#e1d5e7;strokeColor=#9673a6;fontSize=15;" vertex="1" parent="35Ib3SzO13fKSSsHiSuY-1">
          <mxGeometry x="282.5" y="482" width="133" height="60" as="geometry" />
        </mxCell>
        <mxCell id="35Ib3SzO13fKSSsHiSuY-32" style="edgeStyle=orthogonalEdgeStyle;rounded=0;orthogonalLoop=1;jettySize=auto;html=1;entryX=0.5;entryY=0;entryDx=0;entryDy=0;" edge="1" parent="35Ib3SzO13fKSSsHiSuY-1" source="35Ib3SzO13fKSSsHiSuY-27" target="35Ib3SzO13fKSSsHiSuY-28">
          <mxGeometry relative="1" as="geometry" />
        </mxCell>
        <mxCell id="35Ib3SzO13fKSSsHiSuY-27" value="選擇方案並&lt;div&gt;&lt;table&gt;&lt;tbody&gt;&lt;tr&gt;&lt;td data-end=&quot;539&quot; data-start=&quot;531&quot; class=&quot;max-w-[calc(var(--thread-content-max-width)*2/3)]&quot;&gt;&lt;/td&gt;&lt;/tr&gt;&lt;/tbody&gt;&lt;/table&gt;&lt;table&gt;&lt;tbody&gt;&lt;tr&gt;&lt;td data-end=&quot;565&quot; data-start=&quot;539&quot; class=&quot;max-w-[calc(var(--thread-content-max-width)*2/3)]&quot;&gt;輸入付款資訊&lt;/td&gt;&lt;/tr&gt;&lt;/tbody&gt;&lt;/table&gt;&lt;/div&gt;" style="rounded=1;whiteSpace=wrap;html=1;fillColor=#e1d5e7;strokeColor=#9673a6;fontSize=15;" vertex="1" parent="35Ib3SzO13fKSSsHiSuY-1">
          <mxGeometry x="289" y="171" width="120" height="60" as="geometry" />
        </mxCell>
        <mxCell id="35Ib3SzO13fKSSsHiSuY-28" value="確認付款&lt;div&gt;&lt;/div&gt;" style="rounded=1;whiteSpace=wrap;html=1;fillColor=#e1d5e7;strokeColor=#9673a6;fontSize=15;" vertex="1" parent="35Ib3SzO13fKSSsHiSuY-1">
          <mxGeometry x="289" y="274" width="120" height="60" as="geometry" />
        </mxCell>
        <mxCell id="35Ib3SzO13fKSSsHiSuY-42" style="edgeStyle=orthogonalEdgeStyle;rounded=0;orthogonalLoop=1;jettySize=auto;html=1;entryX=0;entryY=0.5;entryDx=0;entryDy=0;exitX=0;exitY=0.5;exitDx=0;exitDy=0;" edge="1" parent="35Ib3SzO13fKSSsHiSuY-1" source="35Ib3SzO13fKSSsHiSuY-37" target="35Ib3SzO13fKSSsHiSuY-27">
          <mxGeometry relative="1" as="geometry">
            <Array as="points">
              <mxPoint x="203" y="408" />
              <mxPoint x="203" y="201" />
            </Array>
          </mxGeometry>
        </mxCell>
        <mxCell id="35Ib3SzO13fKSSsHiSuY-37" value="顯示錯誤訊息" style="rounded=1;whiteSpace=wrap;html=1;fillColor=#e1d5e7;strokeColor=#9673a6;fontSize=15;" vertex="1" parent="35Ib3SzO13fKSSsHiSuY-1">
          <mxGeometry x="289" y="378" width="120" height="60" as="geometry" />
        </mxCell>
        <mxCell id="35Ib3SzO13fKSSsHiSuY-14" value="伺服器" style="swimlane;whiteSpace=wrap;fillColor=#f5f5f5;fontColor=#333333;strokeColor=#666666;fontSize=15;" vertex="1" parent="1">
          <mxGeometry x="760" y="70" width="450" height="600" as="geometry" />
        </mxCell>
        <mxCell id="35Ib3SzO13fKSSsHiSuY-15" value="1.支付帳戶格式驗證&#xa;2.付款方式是否支援&#xa;3.是否通過第三方金流認證" style="shape=note;whiteSpace=wrap;size=17;align=left;fillColor=#e1d5e7;strokeColor=#9673a6;perimeterSpacing=0;spacingLeft=5;fontSize=15;" vertex="1" parent="35Ib3SzO13fKSSsHiSuY-14">
          <mxGeometry x="230" y="142" width="194.5" height="72" as="geometry" />
        </mxCell>
        <mxCell id="35Ib3SzO13fKSSsHiSuY-16" value="" style="endArrow=classic;strokeColor=#000000;endFill=1;rounded=0;entryX=0;entryY=0.5;entryDx=0;entryDy=0;exitX=1;exitY=0.5;exitDx=0;exitDy=0;fontSize=15;" edge="1" parent="35Ib3SzO13fKSSsHiSuY-14" source="35Ib3SzO13fKSSsHiSuY-17" target="35Ib3SzO13fKSSsHiSuY-20">
          <mxGeometry relative="1" as="geometry">
            <mxPoint x="124.54506437768237" y="142" as="sourcePoint" />
            <mxPoint x="125" y="195" as="targetPoint" />
          </mxGeometry>
        </mxCell>
        <mxCell id="35Ib3SzO13fKSSsHiSuY-17" value="接收付款資訊" style="rounded=1;whiteSpace=wrap;html=1;fillColor=#e1d5e7;strokeColor=#9673a6;fontSize=15;" vertex="1" parent="35Ib3SzO13fKSSsHiSuY-14">
          <mxGeometry x="67" y="274" width="120" height="60" as="geometry" />
        </mxCell>
        <mxCell id="35Ib3SzO13fKSSsHiSuY-35" style="edgeStyle=orthogonalEdgeStyle;rounded=0;orthogonalLoop=1;jettySize=auto;html=1;entryX=0.5;entryY=0;entryDx=0;entryDy=0;" edge="1" parent="35Ib3SzO13fKSSsHiSuY-14" source="35Ib3SzO13fKSSsHiSuY-20" target="35Ib3SzO13fKSSsHiSuY-21">
          <mxGeometry relative="1" as="geometry" />
        </mxCell>
        <mxCell id="35Ib3SzO13fKSSsHiSuY-20" value="&lt;table&gt;&lt;tbody&gt;&lt;tr&gt;&lt;td data-end=&quot;667&quot; data-start=&quot;659&quot; class=&quot;max-w-[calc(var(--thread-content-max-width)*2/3)]&quot;&gt;&lt;/td&gt;&lt;/tr&gt;&lt;/tbody&gt;&lt;/table&gt;&lt;table&gt;&lt;tbody&gt;&lt;tr&gt;&lt;td data-end=&quot;693&quot; data-start=&quot;667&quot; class=&quot;max-w-[calc(var(--thread-content-max-width)*2/3)]&quot;&gt;驗證付款資料&lt;/td&gt;&lt;/tr&gt;&lt;/tbody&gt;&lt;/table&gt;" style="rounded=1;whiteSpace=wrap;html=1;fillColor=#e1d5e7;strokeColor=#9673a6;fontSize=15;" vertex="1" parent="35Ib3SzO13fKSSsHiSuY-14">
          <mxGeometry x="267.37" y="274" width="119.25" height="60" as="geometry" />
        </mxCell>
        <mxCell id="35Ib3SzO13fKSSsHiSuY-36" style="edgeStyle=orthogonalEdgeStyle;rounded=0;orthogonalLoop=1;jettySize=auto;html=1;entryX=0.5;entryY=0;entryDx=0;entryDy=0;" edge="1" parent="35Ib3SzO13fKSSsHiSuY-14" source="35Ib3SzO13fKSSsHiSuY-21" target="35Ib3SzO13fKSSsHiSuY-8">
          <mxGeometry relative="1" as="geometry" />
        </mxCell>
        <mxCell id="35Ib3SzO13fKSSsHiSuY-21" value="" style="rhombus;whiteSpace=wrap;html=1;fillColor=#e1d5e7;strokeColor=#9673a6;fontSize=15;" vertex="1" parent="35Ib3SzO13fKSSsHiSuY-14">
          <mxGeometry x="313.5" y="391" width="27.5" height="34" as="geometry" />
        </mxCell>
        <mxCell id="35Ib3SzO13fKSSsHiSuY-8" value="&lt;table&gt;&lt;tbody&gt;&lt;tr&gt;&lt;td data-end=&quot;709&quot; data-start=&quot;701&quot; class=&quot;max-w-[calc(var(--thread-content-max-width)*2/3)]&quot;&gt;&lt;/td&gt;&lt;/tr&gt;&lt;/tbody&gt;&lt;/table&gt;&lt;table&gt;&lt;tbody&gt;&lt;tr&gt;&lt;td data-end=&quot;734&quot; data-start=&quot;709&quot; class=&quot;max-w-[calc(var(--thread-content-max-width)*2/3)]&quot;&gt;更新使用者點數&lt;/td&gt;&lt;/tr&gt;&lt;/tbody&gt;&lt;/table&gt;" style="rounded=1;whiteSpace=wrap;html=1;fillColor=#e1d5e7;strokeColor=#9673a6;fontSize=15;" vertex="1" parent="35Ib3SzO13fKSSsHiSuY-14">
          <mxGeometry x="267.62" y="482" width="120" height="60" as="geometry" />
        </mxCell>
        <mxCell id="35Ib3SzO13fKSSsHiSuY-9" value="傳送成功訊息&lt;div&gt;至使用者&lt;/div&gt;" style="rounded=1;whiteSpace=wrap;html=1;fillColor=#e1d5e7;strokeColor=#9673a6;fontSize=15;" vertex="1" parent="35Ib3SzO13fKSSsHiSuY-14">
          <mxGeometry x="67" y="482" width="120" height="60" as="geometry" />
        </mxCell>
        <mxCell id="35Ib3SzO13fKSSsHiSuY-10" style="edgeStyle=orthogonalEdgeStyle;rounded=0;orthogonalLoop=1;jettySize=auto;html=1;entryX=1;entryY=0.5;entryDx=0;entryDy=0;fontSize=15;exitX=0;exitY=0.5;exitDx=0;exitDy=0;" edge="1" parent="35Ib3SzO13fKSSsHiSuY-14" source="35Ib3SzO13fKSSsHiSuY-8" target="35Ib3SzO13fKSSsHiSuY-9">
          <mxGeometry relative="1" as="geometry" />
        </mxCell>
        <mxCell id="35Ib3SzO13fKSSsHiSuY-34" value="" style="endArrow=none;strokeColor=#000000;endFill=0;rounded=0;dashed=1;exitX=0.5;exitY=0;exitDx=0;exitDy=0;fontColor=default;fontSize=15;entryX=0.5;entryY=1;entryDx=0;entryDy=0;entryPerimeter=0;" edge="1" parent="35Ib3SzO13fKSSsHiSuY-14" source="35Ib3SzO13fKSSsHiSuY-20" target="35Ib3SzO13fKSSsHiSuY-15">
          <mxGeometry relative="1" as="geometry">
            <mxPoint x="180" y="98.75999999999999" as="sourcePoint" />
            <mxPoint x="239" y="98.75999999999999" as="targetPoint" />
          </mxGeometry>
        </mxCell>
        <mxCell id="35Ib3SzO13fKSSsHiSuY-39" value="[驗證成功]" style="text;html=1;align=center;verticalAlign=middle;resizable=0;points=[];autosize=1;strokeColor=none;fillColor=none;fontSize=15;rotation=0;" vertex="1" parent="35Ib3SzO13fKSSsHiSuY-14">
          <mxGeometry x="320" y="436" width="90" height="30" as="geometry" />
        </mxCell>
        <mxCell id="35Ib3SzO13fKSSsHiSuY-40" value="[驗證失敗]" style="text;html=1;align=center;verticalAlign=middle;resizable=0;points=[];autosize=1;strokeColor=none;fillColor=none;fontSize=15;rotation=0;" vertex="1" parent="35Ib3SzO13fKSSsHiSuY-14">
          <mxGeometry x="112" y="384" width="90" height="30" as="geometry" />
        </mxCell>
        <mxCell id="35Ib3SzO13fKSSsHiSuY-33" style="edgeStyle=orthogonalEdgeStyle;rounded=0;orthogonalLoop=1;jettySize=auto;html=1;entryX=0;entryY=0.5;entryDx=0;entryDy=0;" edge="1" parent="1" source="35Ib3SzO13fKSSsHiSuY-28" target="35Ib3SzO13fKSSsHiSuY-17">
          <mxGeometry relative="1" as="geometry" />
        </mxCell>
        <mxCell id="35Ib3SzO13fKSSsHiSuY-38" style="edgeStyle=orthogonalEdgeStyle;rounded=0;orthogonalLoop=1;jettySize=auto;html=1;exitX=0;exitY=0.5;exitDx=0;exitDy=0;entryX=1;entryY=0.5;entryDx=0;entryDy=0;" edge="1" parent="1" source="35Ib3SzO13fKSSsHiSuY-21" target="35Ib3SzO13fKSSsHiSuY-37">
          <mxGeometry relative="1" as="geometry" />
        </mxCell>
        <mxCell id="35Ib3SzO13fKSSsHiSuY-41" style="edgeStyle=orthogonalEdgeStyle;rounded=0;orthogonalLoop=1;jettySize=auto;html=1;" edge="1" parent="1" source="35Ib3SzO13fKSSsHiSuY-9" target="35Ib3SzO13fKSSsHiSuY-13">
          <mxGeometry relative="1" as="geometry" />
        </mxCell>
      </root>
    </mxGraphModel>
  </diagram>
</mxfile>
